<svg fill="none" height="92" viewBox="0 0 413 92" width="413" xmlns="http://www.w3.org/2000/svg"><g fill="#000"><path d="m28.4613 73.14c-5.472 0-10.1587-1.1906-14.06-3.572-3.9013-2.4066-6.90334-5.7506-9.006-10.032-2.07734-4.2813-3.116-9.2466-3.116-14.896 0-5.6493 1.03866-10.6146 3.116-14.896 2.10266-4.2813 5.1047-7.6126 9.006-9.994 3.9013-2.4066 8.588-3.61 14.06-3.61s10.1587 1.2034 14.06 3.61c3.9267 2.3814 6.9287 5.7127 9.006 9.994 2.1027 4.2814 3.154 9.2467 3.154 14.896 0 5.6494-1.0513 10.6147-3.154 14.896-2.0773 4.2814-5.0793 7.6254-9.006 10.032-3.9013 2.3814-8.588 3.572-14.06 3.572zm0-8.626c3.6733.0254 6.726-.7853 9.158-2.432 2.4573-1.6466 4.294-3.9646 5.51-6.954 1.2413-2.9893 1.862-6.4853 1.862-10.488 0-4.0026-.6207-7.4733-1.862-10.412-1.216-2.964-3.0527-5.2693-5.51-6.916-2.432-1.6466-5.4847-2.4953-9.158-2.546-3.6733-.0253-6.726.7854-9.158 2.432-2.432 1.6467-4.2687 3.9647-5.51 6.954-1.216 2.9893-1.824 6.4854-1.824 10.488 0 4.0027.608 7.486 1.824 10.45 1.216 2.9387 3.04 5.2314 5.472 6.878 2.4573 1.6467 5.5227 2.4954 9.196 2.546z"/><path d="m78.5471 73.14c-4.0027 0-7.3594-.95-10.07-2.85-2.7107-1.9-4.75-4.484-6.118-7.752-1.368-3.2933-2.052-6.9793-2.052-11.058 0-4.1293.684-7.828 2.052-11.096s3.3693-5.8393 6.004-7.714c2.66-1.9 5.9407-2.85 9.842-2.85 3.876 0 7.2327.95 10.07 2.85 2.8627 1.8747 5.0793 4.446 6.65 7.714 1.5706 3.2427 2.356 6.9414 2.356 11.096 0 4.104-.7727 7.79-2.318 11.058-1.5454 3.268-3.724 5.852-6.536 7.752s-6.1054 2.85-9.88 2.85zm-19.798-1.14v-54.72h9.234v25.916h-1.14v28.804zm18.392-7.068c2.3813 0 4.3446-.5953 5.89-1.786 1.5453-1.1907 2.6853-2.7993 3.42-4.826.76-2.052 1.14-4.332 1.14-6.84 0-2.4826-.38-4.7373-1.14-6.764-.76-2.052-1.938-3.6733-3.534-4.864-1.596-1.216-3.6227-1.824-6.08-1.824-2.3307 0-4.2307.57-5.7 1.71-1.4693 1.1147-2.5587 2.6854-3.268 4.712-.684 2.0014-1.026 4.3447-1.026 7.03 0 2.66.342 5.0034 1.026 7.03.7093 2.0267 1.8113 3.61 3.306 4.75 1.52 1.1147 3.5086 1.672 5.966 1.672z"/><path d="m120.895 73.14c-4.155 0-7.803-.8993-10.944-2.698-3.141-1.7986-5.599-4.294-7.372-7.486-1.748-3.192-2.6219-6.8653-2.6219-11.02 0-4.484.8609-8.3727 2.5839-11.666 1.723-3.3187 4.117-5.89 7.182-7.714s6.612-2.736 10.64-2.736c4.256 0 7.866 1.0007 10.83 3.002 2.989 1.976 5.206 4.7753 6.65 8.398s1.989 7.8914 1.634 12.806h-9.082v-3.344c-.025-4.4586-.811-7.714-2.356-9.766s-3.977-3.078-7.296-3.078c-3.749 0-6.536 1.1654-8.36 3.496-1.824 2.3054-2.736 5.6874-2.736 10.146 0 4.1547.912 7.372 2.736 9.652s4.484 3.42 7.98 3.42c2.255 0 4.193-.494 5.814-1.482 1.647-1.0133 2.913-2.47 3.8-4.37l9.044 2.736c-1.571 3.6987-4.003 6.574-7.296 8.626-3.268 2.052-6.878 3.078-10.83 3.078zm-14.136-19.114v-6.916h28.234v6.916z"/><path d="m144.536 72v-41.04h8.094v9.994l-.988-1.292c.507-1.368 1.178-2.6093 2.014-3.724.861-1.14 1.887-2.0773 3.078-2.812 1.013-.684 2.128-1.216 3.344-1.596 1.241-.4053 2.508-.646 3.8-.722 1.292-.1013 2.546-.0506 3.762.152v8.55c-1.216-.3546-2.622-.4686-4.218-.342-1.571.1267-2.989.57-4.256 1.33-1.267.684-2.305 1.558-3.116 2.622-.785 1.064-1.368 2.28-1.748 3.648-.38 1.3427-.57 2.7994-.57 4.37v20.862z"/><path d="m188.855 73.14c-4.104 0-7.689-.9247-10.754-2.774s-5.447-4.3953-7.144-7.638c-1.672-3.268-2.508-7.0173-2.508-11.248 0-4.3066.861-8.0813 2.584-11.324 1.723-3.2426 4.117-5.776 7.182-7.6s6.612-2.736 10.64-2.736c4.129 0 7.727.9247 10.792 2.774 3.065 1.8494 5.447 4.408 7.144 7.676 1.697 3.2427 2.546 6.9794 2.546 11.21 0 4.256-.861 8.018-2.584 11.286-1.697 3.2427-4.079 5.7887-7.144 7.638-3.065 1.824-6.65 2.736-10.754 2.736zm0-8.588c3.648 0 6.359-1.216 8.132-3.648s2.66-5.5733 2.66-9.424c0-3.9773-.899-7.144-2.698-9.5-1.799-2.3813-4.497-3.572-8.094-3.572-2.457 0-4.484.5573-6.08 1.672-1.571 1.0894-2.736 2.622-3.496 4.598-.76 1.9507-1.14 4.218-1.14 6.802 0 3.9774.899 7.1567 2.698 9.538 1.824 2.356 4.497 3.534 8.018 3.534z"/><path d="m242.676 72v-19.76c0-1.292-.089-2.7233-.266-4.294-.178-1.5706-.596-3.078-1.254-4.522-.634-1.4693-1.596-2.6726-2.888-3.61-1.267-.9373-2.99-1.406-5.168-1.406-1.166 0-2.318.19-3.458.57s-2.179 1.0387-3.116 1.976c-.912.912-1.647 2.1787-2.204 3.8-.558 1.596-.836 3.648-.836 6.156l-5.434-2.318c0-3.496.671-6.6626 2.014-9.5 1.368-2.8373 3.369-5.092 6.004-6.764 2.634-1.6973 5.877-2.546 9.728-2.546 3.04 0 5.548.5067 7.524 1.52s3.546 2.3054 4.712 3.876c1.165 1.5707 2.026 3.2427 2.584 5.016.557 1.7734.912 3.458 1.064 5.054.177 1.5707.266 2.85.266 3.838v22.914zm-28.462 0v-41.04h8.17v12.73h1.102v28.31z"/><path d="m259.964 72v-9.386h9.386v9.386z"/><path d="m301.21 43.576c5.573.76 9.551 2.3813 11.932 4.864 2.381 2.432 3.572 5.3707 3.572 8.816 0 2.888-.735 5.4467-2.204 7.676-1.469 2.2294-3.572 3.9774-6.308 5.244-2.736 1.216-5.979 1.824-9.728 1.824-1.368 0-2.533-.0253-3.496-.076-3.243-.1013-6.435-.152-9.576-.152-4.155 0-7.296.076-9.424.228v-1.52c1.824-.1013 3.141-.304 3.952-.608.861-.304 1.444-.8866 1.748-1.748.304-.8613.456-2.2546.456-4.18v-37.696c0-1.9253-.152-3.3187-.456-4.18s-.887-1.444-1.748-1.748c-.811-.304-2.128-.5067-3.952-.608v-1.52c2.128.152 5.219.228 9.272.228l8.208-.076c.963-.0506 2.052-.076 3.268-.076 5.168 0 9.12 1.0894 11.856 3.268 2.787 2.1787 4.18 5.0667 4.18 8.664 0 2.9387-.937 5.5734-2.812 7.904-1.824 2.3307-4.737 4.104-8.74 5.32zm-6.384-23.864c-1.571 0-2.761.1773-3.572.532-.76.3547-1.292.988-1.596 1.9s-.456 2.28-.456 4.104v17.176h5.092c4.155 0 7.043-1.1146 8.664-3.344 1.672-2.28 2.508-5.2947 2.508-9.044 0-3.8-.836-6.6373-2.508-8.512-1.672-1.8746-4.383-2.812-8.132-2.812zm.076 50.54c9.475 0 14.212-4.4333 14.212-13.3 0-4.0026-1.089-7.0427-3.268-9.12-2.128-2.0773-5.548-3.116-10.26-3.116h-6.384v19.228c0 1.824.152 3.1667.456 4.028.304.8614.836 1.4693 1.596 1.824.811.304 2.027.456 3.648.456z"/><path d="m330.337 64.932c0 2.0774.431 3.5214 1.292 4.332.862.76 2.356 1.14 4.484 1.14v1.596c-4.661-.2026-7.726-.304-9.196-.304-1.469 0-4.534.1014-9.196.304v-1.596c2.128 0 3.623-.38 4.484-1.14.862-.8106 1.292-2.2546 1.292-4.332v-43.396c0-2.3307-.43-4.028-1.292-5.092-.861-1.064-2.356-1.596-4.484-1.596v-1.596c1.571.152 3.142.228 4.712.228 3.192 0 5.827-.3547 7.904-1.064z"/><path d="m354.457 31.796c5.168 0 9.323 1.7227 12.464 5.168 3.192 3.3947 4.788 8.5627 4.788 15.504 0 6.9414-1.596 12.1094-4.788 15.504-3.141 3.3947-7.296 5.092-12.464 5.092s-9.348-1.6973-12.54-5.092c-3.141-3.3946-4.712-8.5626-4.712-15.504 0-6.9413 1.571-12.1093 4.712-15.504 3.192-3.4453 7.372-5.168 12.54-5.168zm0 1.52c-3.04 0-5.446 1.5707-7.22 4.712-1.773 3.0907-2.66 7.904-2.66 14.44s.887 11.3493 2.66 14.44c1.774 3.0907 4.18 4.636 7.22 4.636s5.447-1.5453 7.22-4.636c1.774-3.0907 2.66-7.904 2.66-14.44s-.886-11.3493-2.66-14.44c-1.773-3.1413-4.18-4.712-7.22-4.712z"/><path d="m407.646 39.7c-.912 0-1.697-.304-2.356-.912-.608-.608-.912-1.4946-.912-2.66 0-1.0133.253-2.1786.76-3.496-1.317.5574-2.356 1.1907-3.116 1.9-.76.6587-1.444 1.4947-2.052 2.508 1.165 1.7734 1.748 4.028 1.748 6.764 0 4.0027-1.216 7.0174-3.648 9.044-2.432 1.976-5.649 2.964-9.652 2.964h-.076c-1.672.9627-2.939 1.8494-3.8 2.66-.861.8107-1.292 1.7227-1.292 2.736 0 1.6214 1.216 2.432 3.648 2.432h9.5c3.445 0 6.283.76 8.512 2.28 2.28 1.4694 3.42 3.6987 3.42 6.688 0 2.432-.785 4.6867-2.356 6.764-1.571 2.0774-3.876 3.7493-6.916 5.016s-6.713 1.9-11.02 1.9c-4.408 0-8.107-.684-11.096-2.052-2.939-1.3173-4.408-3.2933-4.408-5.928 0-1.7227.684-3.2173 2.052-4.484 1.419-1.2667 3.369-2.2546 5.852-2.964l.456 1.216c-1.115.3547-2.001 1.064-2.66 2.128s-.988 2.2547-.988 3.572c0 2.3307 1.039 4.104 3.116 5.32 2.128 1.2667 4.965 1.9 8.512 1.9 3.901 0 7.245-.76 10.032-2.28 2.787-1.4693 4.18-3.7746 4.18-6.916 0-1.824-.659-3.2426-1.976-4.256-1.267-1.0133-3.547-1.52-6.84-1.52h-5.624c-2.989 0-5.396-.38-7.22-1.14-1.773-.76-2.66-2.28-2.66-4.56 0-1.5706.557-3.0653 1.672-4.484 1.165-1.4186 3.065-2.812 5.7-4.18-3.344-.3546-6.029-1.52-8.056-3.496-1.976-1.976-2.964-4.7626-2.964-8.36 0-4.0027 1.216-6.992 3.648-8.968 2.432-2.0267 5.649-3.04 9.652-3.04 4.763 0 8.284 1.3173 10.564 3.952.963-1.368 2.179-2.4826 3.648-3.344 1.469-.912 2.939-1.368 4.408-1.368 1.317 0 2.381.38 3.192 1.14s1.216 1.8494 1.216 3.268c0 1.4187-.405 2.4827-1.216 3.192-.76.7094-1.621 1.064-2.584 1.064zm-19.228 14.744c2.027 0 3.547-.7853 4.56-2.356 1.064-1.6213 1.596-4.3826 1.596-8.284 0-3.9013-.532-6.6373-1.596-8.208-1.013-1.6213-2.533-2.432-4.56-2.432s-3.572.8107-4.636 2.432c-1.013 1.5707-1.52 4.3067-1.52 8.208 0 3.9014.507 6.6627 1.52 8.284 1.064 1.5707 2.609 2.356 4.636 2.356z"/></g></svg>